<?xml version="1.0" encoding="UTF-8"?>
<svg id="Layer_2" data-name="Layer 2" xmlns="http://www.w3.org/2000/svg" viewBox="0 0 808.95 199.52">
  <defs>
    <style>
      .cls-1 {
        fill: #FC8824;
      }
    </style>
  </defs>
  <g id="Layer_1-2" data-name="Layer 1">
    <path id="business" class="cls-1" d="M3.82,1.5h29.13c5.93,0,10.42.75,13.47,2.25,5.19,2.55,7.79,6.8,7.79,12.74,0,5.38-2.65,9.41-7.96,12.07,2.37.83,4.12,1.69,5.25,2.58,3.73,2.78,5.59,6.83,5.59,12.16,0,6.61-2.71,11.52-8.13,14.74-3.44,2.05-8.16,3.08-14.14,3.08H3.82V1.5ZM19.65,13.4v11.57h11.26c5.25,0,7.88-1.91,7.88-5.74s-2.77-5.83-8.3-5.83h-10.84ZM19.65,35.14v13.74h12.45c5.98,0,8.98-2.27,8.98-6.83s-3.11-6.91-9.32-6.91h-12.11ZM121.71,1.5v35.47c0,7.94-1.67,13.88-5,17.82-4.4,5.22-11.52,7.83-21.34,7.83-10.45,0-17.87-2.94-22.27-8.83-2.77-3.72-4.15-9.38-4.15-16.99V1.5h15.84v36.47c0,4.16.86,7.17,2.58,9.03,1.72,1.86,4.5,2.79,8.34,2.79,3.56,0,6.15-.93,7.79-2.79,1.64-1.86,2.46-4.87,2.46-9.03V1.5h15.75ZM182.6,19.4h-15.07c-.23-4.88-3.47-7.33-9.74-7.33-5.48,0-8.22,1.75-8.22,5.25,0,1.61.73,2.78,2.2,3.5,1.24.61,5.22,1.75,11.94,3.41,6.38,1.61,11.01,3.3,13.89,5.08,4.97,3,7.45,7.49,7.45,13.49,0,6.55-2.63,11.6-7.88,15.15-4.57,3.11-10.59,4.66-18.04,4.66-9.03,0-15.92-2.14-20.66-6.41-4.18-3.72-6.32-8.77-6.44-15.15h15.92c.34,6.33,4.26,9.49,11.77,9.49,6.15,0,9.23-2.03,9.23-6.08,0-1.89-.81-3.29-2.41-4.2-1.61-.92-5.6-2.26-11.98-4.04-7.74-2.16-12.93-4.36-15.58-6.58-3.11-2.61-4.66-6.38-4.66-11.32,0-5.88,2.48-10.52,7.45-13.9,4.35-2.94,9.91-4.41,16.68-4.41,8.07,0,14.23,1.91,18.46,5.74,3.67,3.33,5.56,7.88,5.67,13.65ZM213.34,1.5v59.61h-15.84V1.5h15.84ZM281.26,1.5v59.61h-15.41l-16.35-27.06-3.47-6.08c-.62-1-1.47-2.69-2.54-5.08.39,4.39.59,9.44.59,15.15v23.06h-15.41V1.5h16.01l15.08,25.23c2.93,5,5.19,9.16,6.77,12.49-.45-5.83-.68-10.96-.68-15.4V1.5h15.41ZM345.03,1.5v12.82h-32.69v9.91h29.9v12.24h-29.9v11.82h33.45v12.82h-49.29V1.5h48.53ZM405.42,19.4h-15.07c-.23-4.88-3.47-7.33-9.74-7.33-5.48,0-8.22,1.75-8.22,5.25,0,1.61.73,2.78,2.2,3.5,1.24.61,5.22,1.75,11.94,3.41,6.38,1.61,11.01,3.3,13.89,5.08,4.97,3,7.45,7.49,7.45,13.49,0,6.55-2.63,11.6-7.88,15.15-4.57,3.11-10.59,4.66-18.04,4.66-9.03,0-15.92-2.14-20.66-6.41-4.18-3.72-6.32-8.77-6.44-15.15h15.92c.34,6.33,4.26,9.49,11.77,9.49,6.15,0,9.23-2.03,9.23-6.08,0-1.89-.81-3.29-2.41-4.2-1.61-.92-5.6-2.26-11.98-4.04-7.74-2.16-12.93-4.36-15.58-6.58-3.11-2.61-4.66-6.38-4.66-11.32,0-5.88,2.48-10.52,7.45-13.9,4.35-2.94,9.91-4.41,16.68-4.41,8.07,0,14.23,1.91,18.46,5.74,3.67,3.33,5.56,7.88,5.67,13.65ZM466.73,19.4h-15.07c-.23-4.88-3.47-7.33-9.74-7.33-5.48,0-8.22,1.75-8.22,5.25,0,1.61.73,2.78,2.2,3.5,1.24.61,5.22,1.75,11.94,3.41,6.38,1.61,11.01,3.3,13.89,5.08,4.97,3,7.45,7.49,7.45,13.49,0,6.55-2.63,11.6-7.88,15.15-4.57,3.11-10.59,4.66-18.04,4.66-9.03,0-15.92-2.14-20.66-6.41-4.18-3.72-6.32-8.77-6.44-15.15h15.92c.34,6.33,4.26,9.49,11.77,9.49,6.15,0,9.23-2.03,9.23-6.08,0-1.89-.81-3.29-2.41-4.2-1.61-.92-5.6-2.26-11.98-4.04-7.74-2.16-12.93-4.36-15.58-6.58-3.11-2.61-4.66-6.38-4.66-11.32,0-5.88,2.48-10.52,7.45-13.9,4.35-2.94,9.91-4.41,16.68-4.41,8.07,0,14.23,1.91,18.46,5.74,3.67,3.33,5.56,7.88,5.67,13.65Z"/>
    <rect id="line_top" data-name="line top" class="cls-1" x="487.54" y="1.23" width="321.39" height="59.83"/>
    <path id="intellligence" class="cls-1" d="M19.77,69.67v59.61H3.93v-59.61h15.84ZM81.76,69.67v59.61h-15.41l-16.35-27.06-3.47-6.08c-.62-1-1.47-2.69-2.54-5.08.39,4.39.59,9.44.59,15.15v23.06h-15.41v-59.61h16.01l15.08,25.23c2.93,5,5.19,9.16,6.77,12.49-.45-5.83-.68-10.96-.68-15.4v-22.31h15.41ZM138.84,69.67v13.4h-18.12v46.21h-15.75v-46.21h-18.04v-13.4h51.92ZM192.79,69.67v12.82h-32.69v9.91h29.9v12.24h-29.9v11.82h33.45v12.82h-49.29v-59.61h48.53ZM245.13,115.88v13.4h-44.29v-59.61h15.84v46.21h28.46ZM295.68,115.88v13.4h-44.29v-59.61h15.84v46.21h28.46ZM317.79,69.67v59.61h-15.84v-59.61h15.84ZM382.92,96.89v32.39h-10.16c-.56-2.55-.85-4.38-.85-5.5v-1c-4.29,5.33-10.36,7.99-18.21,7.99-9.32,0-16.68-3.25-22.1-9.74-4.69-5.66-7.03-12.79-7.03-21.4,0-9.99,3.22-17.93,9.66-23.81,5.59-5.11,12.62-7.66,21.09-7.66,7.68,0,14.06,2.28,19.14,6.83,4.4,3.94,6.92,8.91,7.54,14.9h-15.33c-1.36-5.94-5.22-8.91-11.6-8.91-4.63,0-8.19,1.62-10.67,4.87s-3.73,7.9-3.73,13.95c0,12.1,5.02,18.15,15.08,18.15,7.4,0,11.63-3.33,12.7-9.99h-11.01v-11.07h25.49ZM440,69.67v12.82h-32.69v9.91h29.9v12.24h-29.9v11.82h33.45v12.82h-49.29v-59.61h48.53ZM500.63,69.67v59.61h-15.41l-16.35-27.06-3.47-6.08c-.62-1-1.47-2.69-2.54-5.08.39,4.39.59,9.44.59,15.15v23.06h-15.41v-59.61h16.01l15.08,25.23c2.93,5,5.19,9.16,6.77,12.49-.45-5.83-.68-10.96-.68-15.4v-22.31h15.41ZM565.51,106.05c-.4,6.22-2.57,11.57-6.52,16.07-5.03,5.77-12.2,8.66-21.51,8.66-9.94,0-17.64-3.39-23.12-10.16-4.69-5.72-7.03-12.79-7.03-21.23s2.68-16.04,8.05-21.98c5.59-6.16,13.13-9.24,22.61-9.24,7.9,0,14.48,2.41,19.73,7.24,4.52,4.16,6.97,9.27,7.37,15.32h-15.41c-.62-2.72-1.58-4.77-2.88-6.16-2.2-2.39-5.22-3.58-9.06-3.58-4.74,0-8.41,1.86-11.01,5.58-2.2,3.28-3.3,7.58-3.3,12.9,0,6.16,1.41,10.88,4.23,14.15,2.48,2.89,5.79,4.33,9.91,4.33s7.45-1.53,9.65-4.58c1.19-1.66,2-4.11,2.46-7.33h15.84ZM619.96,69.67v12.82h-32.69v9.91h29.9v12.24h-29.9v11.82h33.45v12.82h-49.29v-59.61h48.53Z"/>
    <rect id="line_middle" data-name="line middle" class="cls-1" x="638.43" y="69.67" width="170.52" height="59.83"/>
    <path id="solutions" class="cls-1" d="M50.56,156.31h-15.07c-.23-4.88-3.47-7.33-9.74-7.33-5.48,0-8.22,1.75-8.22,5.25,0,1.61.73,2.78,2.2,3.5,1.24.61,5.22,1.75,11.94,3.41,6.38,1.61,11.01,3.3,13.89,5.08,4.97,3,7.45,7.49,7.45,13.49,0,6.55-2.63,11.6-7.88,15.15-4.57,3.11-10.59,4.66-18.04,4.66-9.03,0-15.92-2.14-20.66-6.41-4.18-3.72-6.32-8.77-6.44-15.15h15.92c.34,6.33,4.26,9.49,11.77,9.49,6.15,0,9.23-2.03,9.23-6.08,0-1.89-.81-3.29-2.41-4.2-1.61-.92-5.6-2.26-11.98-4.04-7.74-2.16-12.93-4.36-15.58-6.58-3.11-2.61-4.66-6.38-4.66-11.32,0-5.88,2.48-10.52,7.45-13.9,4.35-2.94,9.91-4.41,16.68-4.41,8.07,0,14.23,1.91,18.46,5.74,3.67,3.33,5.56,7.88,5.67,13.65ZM92.99,136.91c9.43,0,16.94,3.28,22.53,9.82,4.8,5.72,7.2,12.88,7.2,21.48,0,9.94-3.11,17.82-9.32,23.65-5.42,5.11-12.22,7.66-20.41,7.66-9.6,0-17.22-3.27-22.87-9.82-4.86-5.66-7.28-12.82-7.28-21.48,0-9.93,2.99-17.7,8.98-23.31,5.76-5.33,12.82-7.99,21.17-7.99ZM92.91,149.73c-4.57,0-8.13,1.89-10.67,5.66-2.2,3.22-3.3,7.47-3.3,12.74,0,6.16,1.41,10.91,4.23,14.24,2.48,2.89,5.76,4.33,9.82,4.33,4.29,0,7.65-1.65,10.08-4.95,2.43-3.3,3.64-7.92,3.64-13.86s-1.41-10.68-4.23-13.9c-2.43-2.83-5.62-4.25-9.57-4.25ZM179.8,184.62v13.4h-44.29v-59.61h15.84v46.21h28.46ZM243.82,138.41v35.47c0,7.94-1.67,13.88-5,17.82-4.4,5.22-11.52,7.83-21.34,7.83-10.45,0-17.87-2.94-22.27-8.83-2.77-3.72-4.15-9.38-4.15-16.99v-35.3h15.84v36.47c0,4.16.86,7.17,2.58,9.03,1.72,1.86,4.5,2.79,8.34,2.79,3.56,0,6.15-.93,7.79-2.79,1.64-1.86,2.46-4.87,2.46-9.03v-36.47h15.75ZM306.07,138.41v13.4h-18.12v46.21h-15.75v-46.21h-18.04v-13.4h51.92ZM333.26,138.41v59.61h-15.84v-59.61h15.84ZM376.11,136.91c9.43,0,16.94,3.28,22.53,9.82,4.8,5.72,7.2,12.88,7.2,21.48,0,9.94-3.11,17.82-9.32,23.65-5.42,5.11-12.22,7.66-20.41,7.66-9.6,0-17.22-3.27-22.87-9.82-4.86-5.66-7.28-12.82-7.28-21.48,0-9.93,2.99-17.7,8.98-23.31,5.76-5.33,12.82-7.99,21.17-7.99ZM376.02,149.73c-4.57,0-8.13,1.89-10.67,5.66-2.2,3.22-3.3,7.47-3.3,12.74,0,6.16,1.41,10.91,4.23,14.24,2.48,2.89,5.76,4.33,9.82,4.33,4.29,0,7.65-1.65,10.08-4.95,2.43-3.3,3.64-7.92,3.64-13.86s-1.41-10.68-4.23-13.9c-2.43-2.83-5.62-4.25-9.57-4.25ZM471.22,138.41v59.61h-15.41l-16.35-27.06-3.47-6.08c-.62-1-1.47-2.69-2.54-5.08.39,4.39.59,9.44.59,15.15v23.06h-15.41v-59.61h16.01l15.08,25.23c2.93,5,5.19,9.16,6.77,12.49-.45-5.83-.68-10.96-.68-15.4v-22.31h15.41ZM532.87,156.31h-15.07c-.23-4.88-3.47-7.33-9.74-7.33-5.48,0-8.22,1.75-8.22,5.25,0,1.61.73,2.78,2.2,3.5,1.24.61,5.22,1.75,11.94,3.41,6.38,1.61,11.01,3.3,13.89,5.08,4.97,3,7.45,7.49,7.45,13.49,0,6.55-2.63,11.6-7.88,15.15-4.57,3.11-10.59,4.66-18.04,4.66-9.03,0-15.92-2.14-20.66-6.41-4.18-3.72-6.32-8.77-6.44-15.15h15.92c.34,6.33,4.26,9.49,11.77,9.49,6.15,0,9.23-2.03,9.23-6.08,0-1.89-.81-3.29-2.41-4.2-1.61-.92-5.6-2.26-11.98-4.04-7.74-2.16-12.93-4.36-15.58-6.58-3.11-2.61-4.66-6.38-4.66-11.32,0-5.88,2.48-10.52,7.45-13.9,4.35-2.94,9.91-4.41,16.68-4.41,8.07,0,14.23,1.91,18.46,5.74,3.67,3.33,5.56,7.88,5.67,13.65Z"/>
    <rect id="line_bottom" data-name="line bottom" class="cls-1" x="554.06" y="138.29" width="254.89" height="59.83"/>
  </g>
</svg>
