<?xml version="1.0" encoding="UTF-8" standalone="no"?>
<svg id="Ebene_1" data-name="Ebene 1" viewBox="0 0 325.41 87.87" version="1.1" sodipodi:docname="logo.svg" width="325.41" height="87.870003" inkscape:version="1.1.1 (3bf5ae0d25, 2021-09-20)" xmlns:inkscape="http://www.inkscape.org/namespaces/inkscape" xmlns:sodipodi="http://sodipodi.sourceforge.net/DTD/sodipodi-0.dtd" xmlns="http://www.w3.org/2000/svg" xmlns:svg="http://www.w3.org/2000/svg">
  <sodipodi:namedview id="namedview37" pagecolor="#ffffff" bordercolor="#666666" borderopacity="1.0" inkscape:pageshadow="2" inkscape:pageopacity="0.0" inkscape:pagecheckerboard="0" showgrid="false" width="324.41px" inkscape:zoom="17.665895" inkscape:cx="176.13033" inkscape:cy="52.502293" inkscape:window-width="3440" inkscape:window-height="1376" inkscape:window-x="3456" inkscape:window-y="304" inkscape:window-maximized="1" inkscape:current-layer="text18" showguides="true" inkscape:guide-bbox="true" inkscape:lockguides="false">
    <sodipodi:guide position="230.77296,52.301365" orientation="0,-1" id="guide21" inkscape:locked="false"/>
    <sodipodi:guide position="272.04962,33.018549" orientation="0,-1" id="guide23" inkscape:locked="false"/>
  </sodipodi:namedview>
  <defs id="defs4">
    <style id="style2">.cls-1{font-size:28px;}.cls-1,.cls-6,.cls-7{fill:#084785;}.cls-1,.cls-6{font-family:D-DINExp, D-DIN Exp;}.cls-2{letter-spacing:-0.07em;}.cls-3{letter-spacing:0em;}.cls-4{letter-spacing:-0.01em;}.cls-5{letter-spacing:0em;}.cls-6{font-size:29px;}.cls-8{fill:none;stroke:#084785;stroke-miterlimit:10;stroke-width:1.5px;}.cls-9{fill:#4dbbc5;}</style>
  </defs>
  <g aria-label="DATAINMOTION" transform="translate(102.81,54.86)" id="text18" class="cls-1" style="font-size:28px;font-family:D-DINExp, 'D-DIN Exp';fill:#084785">
    <path d="M 2.016,-19.32 V 0 H 9.1 c 2.576,0 4.592,-0.7 5.992,-2.1 1.4,-1.4 2.128,-3.5 2.128,-6.3 v -2.548 c 0,-2.772 -0.7,-4.872 -2.1,-6.272 -1.4,-1.4 -3.388,-2.1 -5.964,-2.1 z m 7.14,17.052 H 4.564 v -14.784 h 4.592 c 1.848,0 3.248,0.532 4.144,1.54 0.896,1.008 1.372,2.576 1.372,4.704 v 2.464 c 0,2.072 -0.476,3.612 -1.372,4.592 -0.896,1.008 -2.296,1.484 -4.144,1.484 z" style="font-size:28px;font-family:D-DINExp, 'D-DIN Exp';fill:#084785" id="path114"/>
    <path d="m 32.898001,-4.368 1.764,4.368 h 2.688 l -8.092,-19.32 h -2.156 L 19.038001,0 h 2.66 l 1.736,-4.368 z m -0.868,-2.156 h -7.728 l 3.864,-9.66 z" style="letter-spacing:-0.07em" id="path116"/>
    <path d="m 50.773928,-17.052 v -2.268 h -15.008 v 2.268 h 6.244 V 0 h 2.52 v -17.052 z" style="letter-spacing:-0.07em" id="path118"/>
    <path d="M 63.028,-4.368 64.792,0 H 67.48 L 59.388,-19.32 H 57.232 L 49.168,0 h 2.66 l 1.736,-4.368 z M 62.16,-6.524 h -7.728 l 3.864,-9.66 z" id="path120"/>
    <path d="M 75.792002,-19.32 V 0 h 2.548 v -19.32 z" id="path122"/>
    <path d="m 98.723964,-19.32 h -2.548 v 14.98 l -11.06,-14.98 h -2.548 V 0 h 2.548 V -14.952 L 96.175964,0 h 2.548 z" id="path124"/>
    <path d="m 127.79,-19.32 h -2.52 l -7.028,12.544 -7.028,-12.544 h -2.548 V 0 h 2.548 v -14.616 l 6.132,10.78 h 1.792 l 6.132,-10.78 V 0 h 2.52 z" style="letter-spacing:0em" id="path126"/>
    <path d="m 133.58599,-1.876 c 1.4,1.428 3.36,2.128 5.936,2.128 2.576,0 4.564,-0.7 5.964,-2.128 1.4,-1.428 2.128,-3.556 2.128,-6.384 v -2.828 c 0,-2.8 -0.7,-4.928 -2.1,-6.356 -1.4,-1.428 -3.36,-2.156 -5.908,-2.156 -2.576,0 -4.592,0.728 -5.992,2.156 -1.4,1.428 -2.1,3.556 -2.1,6.356 v 2.828 c 0,2.828 0.672,4.956 2.072,6.384 z m 10.136,-1.68 c -0.924,1.008 -2.296,1.512 -4.144,1.512 -1.876,0 -3.276,-0.504 -4.172,-1.512 -0.896,-1.008 -1.344,-2.548 -1.344,-4.676 v -2.716 c 0,-2.184 0.448,-3.78 1.344,-4.816 0.896,-1.008 2.296,-1.54 4.172,-1.54 1.848,0 3.22,0.532 4.144,1.54 0.896,1.036 1.372,2.632 1.372,4.816 v 2.716 c 0,2.128 -0.476,3.668 -1.372,4.676 z" style="letter-spacing:0em" id="path128"/>
    <path d="m 164.46998,-17.052 v -2.268 h -15.008 v 2.268 h 6.244 V 0 h 2.52 v -17.052 z" style="letter-spacing:0em" id="path130"/>
    <path d="M 166.87796,-19.32 V 0 h 2.548 v -19.32 z" style="letter-spacing:0em" id="path132"/>
    <path d="m 175.41792,-1.876 c 1.4,1.428 3.36,2.128 5.936,2.128 2.576,0 4.564,-0.7 5.964,-2.128 1.4,-1.428 2.128,-3.556 2.128,-6.384 v -2.828 c 0,-2.8 -0.7,-4.928 -2.1,-6.356 -1.4,-1.428 -3.36,-2.156 -5.908,-2.156 -2.576,0 -4.592,0.728 -5.992,2.156 -1.4,1.428 -2.1,3.556 -2.1,6.356 v 2.828 c 0,2.828 0.672,4.956 2.072,6.384 z m 10.136,-1.68 c -0.924,1.008 -2.296,1.512 -4.144,1.512 -1.876,0 -3.276,-0.504 -4.172,-1.512 -0.896,-1.008 -1.344,-2.548 -1.344,-4.676 v -2.716 c 0,-2.184 0.448,-3.78 1.344,-4.816 0.896,-1.008 2.296,-1.54 4.172,-1.54 1.848,0 3.22,0.532 4.144,1.54 0.896,1.036 1.372,2.632 1.372,4.816 v 2.716 c 0,2.128 -0.476,3.668 -1.372,4.676 z" style="letter-spacing:0em" id="path134"/>
    <path d="m 209.26992,-19.32 h -2.548 v 14.98 l -11.06,-14.98 h -2.548 V 0 h 2.548 V -14.952 L 206.72192,0 h 2.548 z" style="letter-spacing:0em" id="path136"/>
  </g>
  <path class="cls-7" d="M 33.16,18.8 A 3.17,3.17 0 1 1 30,15.63 3.16,3.16 0 0 1 33.17,18.8" transform="translate(-11.7,-9.89)" id="path22"/>
  <path class="cls-8" d="m 97,56.53 a 0.54,0.54 0 0 1 -0.13,0.4 c -0.1,0.12 -10,11.84 -30.38,23.95 C 45.76,93.15 31.24,95.92 31.1,96 a 0.57,0.57 0 0 1 -0.63,-0.36 c 0,-0.14 -5.31,-14.58 -5.65,-38.3 -0.34,-24 4.5,-38.3 4.55,-38.44 A 0.55,0.55 0 0 1 30,18.53 c 0.14,0 15.2,2.79 35.88,14.44 21,11.81 30.85,23.18 30.94,23.29 A 0.55,0.55 0 0 1 97,56.53 Z" transform="translate(-11.7,-9.89)" id="path24"/>
  <path class="cls-9" d="m 90.51,70.92 a 2.88,2.88 0 0 1 -1.62,2.85 c -0.54,0.27 -13.59,6.48 -36.32,9 -23,2.53 -36.61,-0.76 -37.18,-0.9 a 2.88,2.88 0 0 1 -2.18,-3 c 0,-0.6 1.17,-15 10.32,-36 9.28,-21.23 19,-31.61 19.42,-32 a 2.89,2.89 0 0 1 3.74,-0.39 c 0.5,0.34 12.33,8.59 25.82,27.05 13.67,18.71 17.73,32.34 17.9,32.91 a 2.87,2.87 0 0 1 0.1,0.56" transform="translate(-11.7,-9.89)" id="path26"/>
  <path class="cls-7" d="m 72.17,57 c 0,12.51 -2.08,19.85 -2.18,20.22 a 5.34,5.34 0 0 1 -5.74,3.84 c -0.47,0 -11.6,-1.37 -27.27,-9 C 21.08,64.31 13.51,56.51 13.19,56.18 a 5.33,5.33 0 0 1 -0.44,-6.87 c 0.27,-0.37 7,-9.38 21.41,-19.17 14.62,-9.92 25.32,-12.71 25.76,-12.82 a 5.35,5.35 0 0 1 6.24,3.07 c 0.18,0.43 4.53,10.73 5.73,28.11 0.2,3 0.29,5.89 0.28,8.5" transform="translate(-11.7,-9.89)" id="path28"/>
  <path class="cls-7" d="m 99.8,55.74 a 3.17,3.17 0 1 1 -3.17,-3.17 3.17,3.17 0 0 1 3.17,3.17" transform="translate(-11.7,-9.89)" id="path30"/>
  <path class="cls-7" d="m 34.67,94.59 a 3.17,3.17 0 1 1 -3.17,-3.17 3.17,3.17 0 0 1 3.17,3.17" transform="translate(-11.7,-9.89)" id="path32"/>
  <path class="cls-7" d="m 32.88,18.77 a 3.17,3.17 0 1 1 -3.17,-3.17 3.17,3.17 0 0 1 3.17,3.17" transform="translate(-11.7,-9.89)" id="path34"/>
</svg>