<?xml version="1.0" encoding="UTF-8"?>
<!-- Generator: Adobe Illustrator 15.0.0, SVG Export Plug-In  -->
<!DOCTYPE svg PUBLIC "-//W3C//DTD SVG 1.1//EN" "http://www.w3.org/Graphics/SVG/1.1/DTD/svg11.dtd">
<svg version="1.1" xmlns="http://www.w3.org/2000/svg" xmlns:xlink="http://www.w3.org/1999/xlink" xmlns:a="http://ns.adobe.com/AdobeSVGViewerExtensions/3.0/" x="0px" y="0px" width="202px" height="85px" viewBox="4.79 2.197 202 85" enable-background="new 4.79 2.197 202 85" xml:space="preserve">
<defs>
</defs>
<path fill="#008790" d="M106.263,18.753c-0.102,0.103-0.206,0.205-0.206,0.205s-0.102-0.102-0.307-0.205  c-0.204-0.102-0.409-0.205-0.716-0.307c-0.307-0.103-0.614-0.205-1.024-0.307c-0.409-0.103-0.716-0.205-1.127-0.205  c-0.205,0-0.512,0-0.718,0.103c-0.204,0.103-0.512,0.205-0.716,0.307c-0.205,0.103-0.41,0.307-0.512,0.512  c-0.103,0.205-0.205,0.512-0.205,0.819c0,0.41,0.102,0.82,0.409,1.025c0.308,0.307,0.717,0.512,1.128,0.717  c0.409,0.205,0.921,0.512,1.537,0.717c0.512,0.205,1.025,0.512,1.536,0.922c0.615,0.411,1.025,0.922,1.433,1.538  c0.41,0.615,0.514,1.332,0.514,2.151c0,0.717-0.104,1.332-0.409,1.947c-0.205,0.614-0.615,1.126-1.024,1.537  c-0.409,0.41-0.921,0.717-1.536,0.923c-0.615,0.204-1.23,0.307-1.947,0.307c-0.615,0-1.127-0.104-1.741-0.206  c-0.512-0.102-1.025-0.205-1.537-0.41c-0.411-0.103-0.82-0.307-1.127-0.41s-0.409-0.307-0.409-0.41V29.92  c0-0.103,0-0.103,0.102-0.206l0.513-1.537c0-0.103,0.102-0.205,0.204-0.205c0,0,0.104,0.103,0.411,0.205  c0.204,0.103,0.511,0.205,0.819,0.308c0.307,0.103,0.716,0.205,1.127,0.307c0.409,0.103,0.921,0.205,1.434,0.205  c0.616,0,1.128-0.205,1.538-0.512c0.41-0.308,0.512-0.82,0.512-1.538c0-0.512-0.102-0.922-0.409-1.228  c-0.309-0.308-0.616-0.615-1.025-0.82c-0.41-0.205-0.923-0.512-1.435-0.717c-0.512-0.205-1.127-0.512-1.639-0.819  c-0.614-0.41-1.127-0.82-1.434-1.332s-0.512-1.23-0.512-2.152c0-0.819,0.103-1.536,0.411-2.048c0.307-0.615,0.614-1.025,1.125-1.435  c0.411-0.41,1.025-0.615,1.538-0.82c0.615-0.205,1.23-0.307,1.844-0.307c0.512,0,1.025,0.103,1.64,0.205  c0.513,0.103,1.023,0.205,1.434,0.41c0.409,0.103,0.716,0.308,1.022,0.513c0.208,0.205,0.41,0.308,0.41,0.41  c0,0.103,0,0.205-0.102,0.308L106.263,18.753z"/>
<path fill="#008790" d="M121.528,30.842c0,0.205,0,0.308-0.104,0.41c-0.103,0.102-0.205,0.102-0.409,0.102h-1.946  c-0.205,0-0.309,0-0.41-0.102c-0.101-0.102-0.101-0.205-0.101-0.41l-0.206-7.684c0-0.205,0-0.41,0-0.82c0-0.307,0-0.717,0-1.025  c0-0.307,0-0.717,0-1.024c0-0.307,0-0.615,0-0.82l0,0c0,0.205-0.103,0.513-0.103,0.82c-0.102,0.308-0.102,0.615-0.205,1.024  c-0.104,0.308-0.104,0.718-0.205,1.025c-0.101,0.307-0.101,0.615-0.204,0.82l-1.333,4.405c0,0.205-0.103,0.307-0.103,0.307  s-0.205,0.103-0.409,0.103h-1.435c-0.205,0-0.306,0-0.409-0.103c0,0-0.104-0.102-0.104-0.307l-1.331-4.405  c-0.101-0.205-0.101-0.41-0.202-0.82c-0.104-0.307-0.104-0.615-0.207-1.025c-0.102-0.307-0.102-0.614-0.204-1.024  c-0.103-0.307-0.103-0.615-0.103-0.82l0,0c0,0.205,0,0.513,0,0.82c0,0.308,0,0.615,0,1.024c0,0.308,0,0.718,0,1.025s0,0.615,0,0.82  l-0.205,7.684c0,0.205,0,0.308-0.102,0.41c-0.103,0.102-0.207,0.102-0.41,0.102h-1.639c-0.207,0-0.309,0-0.411-0.102  c-0.103-0.102-0.103-0.205-0.103-0.41l0.615-14.445c0-0.205,0-0.308,0.101-0.41c0.104-0.103,0.208-0.103,0.41-0.103h2.153  c0.205,0,0.306,0,0.306,0.103c0,0,0.104,0.103,0.207,0.308l1.843,5.634c0.102,0.41,0.309,0.922,0.409,1.332  c0.102,0.41,0.205,0.922,0.309,1.332l0,0c0-0.205,0.102-0.41,0.102-0.615c0-0.205,0.103-0.307,0.103-0.512  c0-0.205,0.103-0.411,0.206-0.615c0.102-0.205,0.202-0.512,0.306-0.922l1.946-5.634c0.104-0.206,0.104-0.308,0.207-0.308  c0,0,0.204-0.103,0.41-0.103h2.15c0.202,0,0.307,0,0.41,0.103c0.101,0.103,0.101,0.308,0.101,0.615L121.528,30.842z"/>
<path fill="#008790" d="M126.24,30.842c0,0.205-0.102,0.308-0.102,0.41c-0.103,0.102-0.205,0.102-0.309,0.102h-2.252  c-0.309,0-0.409-0.102-0.409-0.204c0-0.103,0-0.103,0-0.206s0-0.103,0.101-0.205l4.407-14.547c0-0.103,0.101-0.206,0.101-0.308  c0,0,0.206-0.102,0.411-0.102h2.355c0.205,0,0.306,0,0.306,0.102c0.104,0.103,0.104,0.103,0.104,0.308l4.405,14.547  c0,0,0,0.103,0.103,0.205c0,0.103,0,0.103,0,0.206c0,0.102,0,0.102-0.103,0.102s-0.204,0-0.308,0h-2.562  c-0.103,0-0.204,0-0.204-0.102c0-0.103-0.104-0.206-0.104-0.411l-1.024-3.688h-3.892L126.24,30.842z M129.519,21.314  c0-0.205-0.101-0.512-0.101-0.717c-0.104-0.308-0.104-0.512-0.104-0.819c0-0.308-0.104-0.513-0.104-0.82  c0-0.307-0.101-0.511-0.101-0.716l0,0c0,0.512-0.102,1.024-0.205,1.638c-0.104,0.615-0.205,1.127-0.307,1.538l-1.023,3.894h2.97  L129.519,21.314z"/>
<path fill="#008790" d="M139.968,30.842c0,0.205,0,0.308-0.101,0.41c-0.102,0.102-0.205,0.102-0.41,0.102h-2.05  c-0.204,0-0.309,0-0.409-0.102c-0.102-0.102-0.102-0.205-0.102-0.41V16.397c0-0.205,0-0.308,0.102-0.41  c0.101-0.103,0.205-0.103,0.409-0.103h3.688c0.309,0,0.616,0,1.025,0c0.41,0,0.716,0.103,1.126,0.205  c0.409,0.103,0.82,0.206,1.128,0.41c0.409,0.205,0.717,0.41,1.022,0.717c0.309,0.307,0.514,0.717,0.719,1.229  c0.204,0.511,0.309,1.126,0.309,1.741c0,0.717-0.104,1.332-0.309,1.844c-0.205,0.512-0.41,0.922-0.719,1.229  c-0.306,0.307-0.511,0.512-0.819,0.717c-0.306,0.205-0.511,0.308-0.717,0.411l3.383,6.044c0,0.103,0.101,0.103,0.101,0.205  c0,0.103,0.103,0.103,0.103,0.205s0,0.103-0.103,0.205c-0.101,0-0.203,0.103-0.308,0.103l-1.842,0.512c-0.104,0-0.207,0-0.309,0  c-0.103,0-0.309-0.205-0.512-0.718l-3.074-6.044h-1.125v5.942H139.968z M140.585,22.646c0.41,0,0.716,0,1.023-0.102  c0.307,0,0.615-0.103,0.819-0.308c0.204-0.205,0.409-0.41,0.614-0.717c0.104-0.308,0.205-0.718,0.205-1.23  c0-0.512-0.102-0.922-0.205-1.127c-0.104-0.307-0.306-0.512-0.614-0.615c-0.204-0.102-0.513-0.205-0.819-0.205  c-0.308,0-0.613,0-0.821,0h-0.819v4.303H140.585z"/>
<path fill="#008790" d="M154.105,30.842c0,0.205,0,0.308-0.101,0.41c-0.102,0.102-0.205,0.102-0.41,0.102h-2.049  c-0.205,0-0.308,0-0.41-0.102c-0.102-0.102-0.102-0.205-0.102-0.41V18.548h-2.97c-0.207,0-0.309,0-0.309-0.102  c0,0-0.103-0.103-0.103-0.307v-1.947c0-0.206,0-0.308,0.103-0.308c0,0,0.102-0.102,0.309-0.102h9.32c0.206,0,0.409,0,0.409,0  c0.103,0,0.103,0.102,0.103,0.205s0,0.103,0,0.103s0,0.103-0.103,0.206l-0.511,1.742c0,0.205-0.101,0.307-0.205,0.307  c-0.104,0-0.204,0-0.306,0h-2.768v12.499H154.105z"/>
<path fill="#008790" d="M174.598,29.92c0.103,0.103,0.103,0.307,0.103,0.307c0,0.103-0.103,0.205-0.309,0.41  c-0.205,0.205-0.41,0.308-0.719,0.513c-0.306,0.204-0.716,0.307-1.228,0.409c-0.408,0.104-0.923,0.206-1.535,0.206  c-1.948,0-3.486-0.614-4.406-1.947c-0.922-1.332-1.436-3.279-1.436-6.044c0-1.332,0.104-2.459,0.41-3.484  c0.205-1.024,0.614-1.843,1.126-2.561c0.514-0.717,1.128-1.229,1.847-1.639c0.717-0.41,1.536-0.512,2.561-0.512  c0.409,0,0.819,0.103,1.331,0.205c0.511,0.102,0.819,0.307,1.229,0.513c0.409,0.205,0.614,0.41,0.922,0.512  c0.206,0.205,0.307,0.308,0.307,0.41v0.102c0,0.103,0,0.103-0.101,0.205l-0.819,1.229c-0.104,0.103-0.208,0.205-0.309,0.205  c-0.102,0-0.205-0.102-0.309-0.205c-0.102-0.102-0.307-0.205-0.511-0.41c-0.205-0.102-0.41-0.204-0.613-0.409  c-0.206-0.103-0.514-0.206-0.819-0.206c-0.514,0-0.923,0.103-1.229,0.308c-0.309,0.205-0.617,0.511-0.82,0.921  c-0.206,0.41-0.41,0.922-0.514,1.64c-0.103,0.717-0.204,1.435-0.204,2.458c0,0.922,0,1.845,0.102,2.561  c0.103,0.717,0.206,1.435,0.41,1.947c0.206,0.512,0.513,0.922,0.819,1.229c0.409,0.308,0.819,0.41,1.437,0.41  c0.306,0,0.613,0,0.819-0.103c0.306-0.103,0.512-0.205,0.714-0.308c0.208-0.102,0.41-0.205,0.514-0.307  c0.205-0.103,0.306-0.103,0.41-0.103c0.104,0,0.204,0.103,0.204,0.206L174.598,29.92z"/>
<path fill="#008790" d="M182.691,30.842c0,0.205,0,0.308-0.103,0.41c-0.104,0.102-0.206,0.102-0.41,0.102h-5.532  c-0.205,0-0.307,0-0.41-0.102c-0.104-0.102-0.104-0.205-0.104-0.41v-1.229c0-0.205,0-0.308,0.104-0.41  c0.104-0.103,0.205-0.103,0.41-0.103h1.229V18.037h-1.229c-0.205,0-0.307,0-0.41-0.103s-0.104-0.206-0.104-0.41v-1.229  c0-0.206,0-0.308,0.104-0.411c0.104-0.102,0.205-0.102,0.41-0.102h5.532c0.204,0,0.307,0,0.41,0.102  c0.103,0.103,0.103,0.205,0.103,0.411v1.229c0,0.205,0,0.308-0.103,0.41c-0.104,0.103-0.206,0.103-0.41,0.103h-1.229v11.064h1.229  c0.204,0,0.307,0,0.41,0.103c0.103,0.102,0.103,0.205,0.103,0.41V30.842z"/>
<path fill="#008790" d="M190.068,30.842c0,0.205,0,0.308-0.104,0.41c-0.104,0.102-0.205,0.102-0.41,0.102h-2.05  c-0.205,0-0.306,0-0.407-0.102c-0.104-0.102-0.104-0.205-0.104-0.41V18.548h-2.973c-0.202,0-0.306,0-0.306-0.102  c0,0-0.104-0.103-0.104-0.307v-1.947c0-0.206,0-0.308,0.104-0.308c0,0,0.104-0.102,0.306-0.102h9.325c0.202,0,0.41,0,0.41,0  c0.101,0,0.101,0.102,0.101,0.205s0,0.103,0,0.103s0,0.103-0.101,0.206l-0.514,1.742c0,0.205-0.104,0.307-0.205,0.307  c-0.101,0-0.205,0-0.309,0h-2.765v12.499H190.068z"/>
<path fill="#008790" d="M202.054,30.842c0,0.205,0,0.308-0.103,0.41c-0.104,0.102-0.205,0.102-0.409,0.102h-2.05  c-0.205,0-0.306,0-0.41-0.102c-0.104-0.102-0.104-0.205-0.104-0.41v-5.839l-4.199-8.196c-0.103-0.205-0.205-0.307-0.205-0.512  c0-0.103,0.205-0.206,0.514-0.206l2.252-0.41c0.104,0,0.104,0,0.206,0h0.103c0,0,0.102,0,0.205,0.103  c0.104,0,0.104,0.102,0.204,0.205l1.844,3.893c0.105,0.308,0.308,0.615,0.411,1.025c0.205,0.41,0.306,0.922,0.514,1.435l0,0  c0.202-0.615,0.409-1.229,0.511-1.639c0.205-0.41,0.309-0.717,0.511-1.025l1.64-3.482c0.102-0.206,0.205-0.308,0.205-0.41  c0,0,0.104-0.103,0.205-0.103c0.103,0,0.205,0,0.309,0l1.945,0.41c0.104,0,0.205,0.103,0.307,0.103c0.104,0,0.104,0.103,0.104,0.205  V16.5c0,0.103-0.104,0.103-0.104,0.205l-4.199,8.196v5.942H202.054z"/>
<path fill="#123370" d="M116.611,61.885c0,1.535-0.103,3.071-0.411,4.508c-0.205,1.433-0.717,2.663-1.434,3.688  c-0.716,1.023-1.741,1.944-2.971,2.561c-1.229,0.613-2.973,0.922-5.022,0.922c-1.943,0-3.48-0.309-4.71-1.024  c-1.23-0.717-2.152-1.536-2.768-2.561c-0.614-1.025-1.125-2.153-1.331-3.382c-0.205-1.23-0.307-2.356-0.307-3.482  c0-0.309,0-0.511,0.102-0.511c0.103-0.104,0.205-0.104,0.309-0.104h5.019c0.409,0,0.615,0.204,0.615,0.717c0,0.308,0,0.717,0,1.33  c0,0.514,0.103,1.128,0.307,1.64c0.205,0.514,0.512,1.027,0.923,1.437c0.409,0.41,1.023,0.612,1.946,0.612  c0.715,0,1.229-0.102,1.64-0.41c0.409-0.306,0.716-0.611,0.819-1.125c0.205-0.411,0.306-1.025,0.306-1.64  c0-0.615,0.104-1.333,0.104-2.05v-20.49h-6.966c-0.41,0-0.717-0.102-0.819-0.204c-0.104-0.103-0.206-0.411-0.206-0.923v-2.766  c0-0.513,0.102-0.82,0.206-0.922c0.102-0.103,0.409-0.205,0.819-0.205h12.806c0.409,0,0.717,0.102,0.82,0.205  c0.103,0.102,0.205,0.409,0.205,0.922V61.885z"/>
<path fill="#123370" d="M143.247,71.616c0,0.514-0.102,0.819-0.205,0.923c-0.104,0.103-0.407,0.205-0.818,0.205h-16.803  c-0.41,0-0.716-0.103-0.821-0.205c-0.101-0.104-0.202-0.409-0.202-0.923V38.731c0-0.512,0.102-0.819,0.202-0.923  c0.105-0.102,0.411-0.205,0.821-0.205h16.803c0.513,0,0.818,0,1.023,0.103c0.205,0.102,0.205,0.206,0.205,0.409  c0,0.104,0,0.205,0,0.309c0,0.102-0.104,0.204-0.104,0.409l-0.92,3.38c-0.102,0.41-0.307,0.614-0.513,0.717  c-0.203,0.102-0.408,0.102-0.614,0.102h-9.938v8.604h8.708c0.514,0,0.82,0.104,0.924,0.208c0.101,0.101,0.203,0.409,0.203,0.92  v3.382c0,0.511-0.103,0.819-0.203,0.92c-0.104,0.104-0.41,0.208-0.819,0.208h-8.709v10.039h10.961c0.511,0,0.819,0.102,0.92,0.205  c0.104,0.104,0.208,0.409,0.208,0.923v3.174H143.247z"/>
<path fill="#123370" d="M173.062,71.616c0,0.514-0.104,0.819-0.208,0.923c-0.101,0.103-0.408,0.205-0.92,0.205h-3.381  c-0.41,0-0.615,0-0.719-0.103c-0.102-0.103-0.306-0.308-0.41-0.616l-9.321-17.415c-0.819-1.434-1.434-2.664-1.844-3.688  c-0.409-1.023-0.82-2.151-1.023-3.275h-0.206c0,0.306,0,1.021,0.104,2.149c0.103,1.126,0.103,2.253,0.103,3.482v18.44  c0,0.514-0.103,0.82-0.206,0.923c-0.103,0.103-0.41,0.204-0.819,0.204h-3.688c-0.41,0-0.716-0.102-0.818-0.204  c-0.104-0.103-0.206-0.409-0.206-0.923V38.731c0-0.512,0.103-0.819,0.206-0.923c0.103-0.102,0.408-0.205,0.818-0.205h4.201  c0.41,0,0.613,0,0.716,0.103c0.104,0.102,0.308,0.307,0.411,0.513l8.402,15.878c0.716,1.334,1.33,2.664,1.841,3.895  c0.512,1.229,0.922,2.458,1.23,3.483h0.101c0-0.411,0-0.922,0-1.539c0-0.612,0-1.229-0.101-1.842c0-0.616,0-1.229,0-1.847  c0-0.613,0-1.022,0-1.433V38.731c0-0.512,0.101-0.819,0.205-0.923c0.104-0.102,0.409-0.205,0.819-0.205h3.689  c0.408,0,0.716,0.103,0.816,0.205c0.104,0.104,0.208,0.411,0.208,0.923V71.616z"/>
<path fill="#123370" d="M185.661,71.616c-0.101,0.514-0.203,0.819-0.307,0.923c-0.103,0.103-0.41,0.205-0.716,0.205h-5.124  c-0.614,0-1.024-0.103-1.024-0.41c0-0.102,0-0.309,0.102-0.409c0.104-0.206,0.104-0.309,0.104-0.411l10.04-32.885  c0.103-0.308,0.205-0.513,0.306-0.615c0.104-0.102,0.41-0.102,0.819-0.102h5.329c0.409,0,0.614,0.102,0.718,0.204  c0.102,0.104,0.202,0.309,0.306,0.616l10.043,32.987c0,0.104,0.101,0.206,0.101,0.411c0.102,0.204,0.102,0.306,0.102,0.409  c0,0.205-0.102,0.307-0.307,0.307c-0.204,0-0.409,0.104-0.717,0.104h-5.736c-0.309,0-0.411-0.104-0.512-0.205  c-0.104-0.103-0.208-0.41-0.309-0.922l-2.255-8.298h-8.811L185.661,71.616z M193.243,49.898c-0.104-0.513-0.205-1.025-0.306-1.641  c-0.104-0.611-0.208-1.229-0.309-1.842c-0.102-0.617-0.205-1.231-0.205-1.846c-0.104-0.614-0.205-1.23-0.205-1.742h-0.103  c-0.103,1.128-0.206,2.254-0.409,3.588c-0.206,1.331-0.41,2.457-0.719,3.482l-2.253,8.809h6.763L193.243,49.898z"/>
<g>
	<defs>
		<path id="SVGID_20_" d="M45.408,3.897c-1.024,0-2.049,0.41-2.766,1.229L6.067,41.599c-1.537,1.537-1.537,4.2,0,5.739L42.539,83.81    c1.538,1.536,4.201,1.536,5.737,0l36.472-36.472c1.538-1.539,1.538-4.202,0-5.739L48.276,5.025    C47.559,4.307,46.535,3.897,45.408,3.897L45.408,3.897z"/>
	</defs>
	<clipPath id="SVGID_21_">
		<use xlink:href="#SVGID_20_" overflow="visible"/>
	</clipPath>
	
		<linearGradient id="SVGID_22_" gradientUnits="userSpaceOnUse" x1="38.0112" y1="-170.6328" x2="40.0568" y2="-170.6328" gradientTransform="matrix(0 -39.6481 39.6481 0 6810.6807 1592.0922)">
		<stop offset="0" style="stop-color:#133370"/>
		<stop offset="7.727270e-004" style="stop-color:#133370"/>
		<stop offset="0.0861" style="stop-color:#0C3672"/>
		<stop offset="0.2088" style="stop-color:#004079"/>
		<stop offset="0.354" style="stop-color:#005084"/>
		<stop offset="0.5165" style="stop-color:#006791"/>
		<stop offset="0.691" style="stop-color:#00839E"/>
		<stop offset="0.8291" style="stop-color:#009BA6"/>
		<stop offset="1" style="stop-color:#009BA6"/>
	</linearGradient>
	<rect x="4.428" y="3.897" clip-path="url(#SVGID_21_)" fill="url(#SVGID_22_)" width="81.959" height="81.551"/>
</g>
<g>
	<defs>
		<path id="SVGID_19_" d="M45.408,3.897c-1.024,0-2.049,0.41-2.766,1.229L6.067,41.599c-1.537,1.537-1.537,4.2,0,5.739L42.539,83.81    c1.538,1.536,4.201,1.536,5.737,0l36.472-36.472c1.538-1.539,1.538-4.202,0-5.739L48.276,5.025    C47.559,4.307,46.535,3.897,45.408,3.897L45.408,3.897z"/>
	</defs>
	<clipPath id="SVGID_23_">
		<use xlink:href="#SVGID_19_" overflow="visible"/>
	</clipPath>
	<path clip-path="url(#SVGID_23_)" fill="#FFFFFF" d="M61.185,31.15c-0.101,0.102-0.307,0.102-0.408,0l-2.665-2.665   c-0.102-0.103-0.102-0.308,0-0.41l2.665-2.663c0.102-0.102,0.307-0.102,0.408,0l2.664,2.663c0.103,0.103,0.103,0.307,0,0.41   L61.185,31.15z"/>
</g>
<g>
	<defs>
		<path id="SVGID_18_" d="M45.408,3.897c-1.024,0-2.049,0.41-2.766,1.229L6.067,41.599c-1.537,1.537-1.537,4.2,0,5.739L42.539,83.81    c1.538,1.536,4.201,1.536,5.737,0l36.472-36.472c1.538-1.539,1.538-4.202,0-5.739L48.276,5.025    C47.559,4.307,46.535,3.897,45.408,3.897L45.408,3.897z"/>
	</defs>
	<clipPath id="SVGID_24_">
		<use xlink:href="#SVGID_18_" overflow="visible"/>
	</clipPath>
	<path clip-path="url(#SVGID_24_)" fill="#FFFFFF" d="M24.918,52.665c-0.308,0.307-0.717,0.307-1.024,0l-6.455-6.455   c-0.308-0.308-0.308-0.717,0-1.025l6.455-6.453c0.307-0.307,0.716-0.307,1.024,0l6.455,6.453c0.306,0.309,0.306,0.718,0,1.025   L24.918,52.665z"/>
</g>
<g>
	<defs>
		<path id="SVGID_17_" d="M45.408,3.897c-1.024,0-2.049,0.41-2.766,1.229L6.067,41.599c-1.537,1.537-1.537,4.2,0,5.739L42.539,83.81    c1.538,1.536,4.201,1.536,5.737,0l36.472-36.472c1.538-1.539,1.538-4.202,0-5.739L48.276,5.025    C47.559,4.307,46.535,3.897,45.408,3.897L45.408,3.897z"/>
	</defs>
	<clipPath id="SVGID_25_">
		<use xlink:href="#SVGID_17_" overflow="visible"/>
	</clipPath>
	<path clip-path="url(#SVGID_25_)" fill="#FFFFFF" d="M59.444,57.376c-0.205,0.205-0.513,0.205-0.718,0l-4.508-4.508   c-0.205-0.203-0.205-0.512,0-0.717l4.508-4.505c0.205-0.208,0.513-0.208,0.718,0l4.507,4.505c0.205,0.205,0.205,0.514,0,0.717   L59.444,57.376z"/>
</g>
<g>
	<defs>
		<path id="SVGID_16_" d="M45.408,3.897c-1.024,0-2.049,0.41-2.766,1.229L6.067,41.599c-1.537,1.537-1.537,4.2,0,5.739L42.539,83.81    c1.538,1.536,4.201,1.536,5.737,0l36.472-36.472c1.538-1.539,1.538-4.202,0-5.739L48.276,5.025    C47.559,4.307,46.535,3.897,45.408,3.897L45.408,3.897z"/>
	</defs>
	<clipPath id="SVGID_26_">
		<use xlink:href="#SVGID_16_" overflow="visible"/>
	</clipPath>
	
		<line clip-path="url(#SVGID_26_)" fill="none" stroke="#FFFFFF" stroke-width="0.605" x1="24.201" y1="45.697" x2="54.525" y2="77.56"/>
</g>
<g>
	<defs>
		<path id="SVGID_15_" d="M45.408,3.897c-1.024,0-2.049,0.41-2.766,1.229L6.067,41.599c-1.537,1.537-1.537,4.2,0,5.739L42.539,83.81    c1.538,1.536,4.201,1.536,5.737,0l36.472-36.472c1.538-1.539,1.538-4.202,0-5.739L48.276,5.025    C47.559,4.307,46.535,3.897,45.408,3.897L45.408,3.897z"/>
	</defs>
	<clipPath id="SVGID_27_">
		<use xlink:href="#SVGID_15_" overflow="visible"/>
	</clipPath>
	
		<line clip-path="url(#SVGID_27_)" fill="none" stroke="#FFFFFF" stroke-width="0.605" x1="59.034" y1="53.177" x2="60.878" y2="28.178"/>
</g>
<g>
	<defs>
		<path id="SVGID_14_" d="M45.408,3.897c-1.024,0-2.049,0.41-2.766,1.229L6.067,41.599c-1.537,1.537-1.537,4.2,0,5.739L42.539,83.81    c1.538,1.536,4.201,1.536,5.737,0l36.472-36.472c1.538-1.539,1.538-4.202,0-5.739L48.276,5.025    C47.559,4.307,46.535,3.897,45.408,3.897L45.408,3.897z"/>
	</defs>
	<clipPath id="SVGID_28_">
		<use xlink:href="#SVGID_14_" overflow="visible"/>
	</clipPath>
	
		<line clip-path="url(#SVGID_28_)" fill="none" stroke="#FFFFFF" stroke-width="0.605" x1="61.287" y1="28.178" x2="7.707" y2="53.382"/>
</g>
<g>
	<defs>
		<path id="SVGID_13_" d="M45.408,3.897c-1.024,0-2.049,0.41-2.766,1.229L6.067,41.599c-1.537,1.537-1.537,4.2,0,5.739L42.539,83.81    c1.538,1.536,4.201,1.536,5.737,0l36.472-36.472c1.538-1.539,1.538-4.202,0-5.739L48.276,5.025    C47.559,4.307,46.535,3.897,45.408,3.897L45.408,3.897z"/>
	</defs>
	<clipPath id="SVGID_29_">
		<use xlink:href="#SVGID_13_" overflow="visible"/>
	</clipPath>
	
		<line clip-path="url(#SVGID_29_)" fill="none" stroke="#FFFFFF" stroke-width="0.605" x1="23.996" y1="45.493" x2="22.665" y2="21.314"/>
</g>
<g>
	<defs>
		<path id="SVGID_12_" d="M45.408,3.897c-1.024,0-2.049,0.41-2.766,1.229L6.067,41.599c-1.537,1.537-1.537,4.2,0,5.739L42.539,83.81    c1.538,1.536,4.201,1.536,5.737,0l36.472-36.472c1.538-1.539,1.538-4.202,0-5.739L48.276,5.025    C47.559,4.307,46.535,3.897,45.408,3.897L45.408,3.897z"/>
	</defs>
	<clipPath id="SVGID_30_">
		<use xlink:href="#SVGID_12_" overflow="visible"/>
	</clipPath>
	
		<line clip-path="url(#SVGID_30_)" fill="none" stroke="#FFFFFF" stroke-width="0.605" x1="21.333" y1="46.107" x2="0.023" y2="44.468"/>
</g>
<g>
	<defs>
		<path id="SVGID_11_" d="M45.408,3.897c-1.024,0-2.049,0.41-2.766,1.229L6.067,41.599c-1.537,1.537-1.537,4.2,0,5.739L42.539,83.81    c1.538,1.536,4.201,1.536,5.737,0l36.472-36.472c1.538-1.539,1.538-4.202,0-5.739L48.276,5.025    C47.559,4.307,46.535,3.897,45.408,3.897L45.408,3.897z"/>
	</defs>
	<clipPath id="SVGID_31_">
		<use xlink:href="#SVGID_11_" overflow="visible"/>
	</clipPath>
	
		<line clip-path="url(#SVGID_31_)" fill="none" stroke="#FFFFFF" stroke-width="0.605" x1="24.201" y1="45.288" x2="29.733" y2="78.379"/>
</g>
<g>
	<defs>
		<path id="SVGID_10_" d="M45.408,3.897c-1.024,0-2.049,0.41-2.766,1.229L6.067,41.599c-1.537,1.537-1.537,4.2,0,5.739L42.539,83.81    c1.538,1.536,4.201,1.536,5.737,0l36.472-36.472c1.538-1.539,1.538-4.202,0-5.739L48.276,5.025    C47.559,4.307,46.535,3.897,45.408,3.897L45.408,3.897z"/>
	</defs>
	<clipPath id="SVGID_32_">
		<use xlink:href="#SVGID_10_" overflow="visible"/>
	</clipPath>
	
		<line clip-path="url(#SVGID_32_)" fill="none" stroke="#FFFFFF" stroke-width="0.605" x1="24.406" y1="45.185" x2="77.782" y2="57.581"/>
</g>
<g>
	<defs>
		<path id="SVGID_9_" d="M45.408,3.897c-1.024,0-2.049,0.41-2.766,1.229L6.067,41.599c-1.537,1.537-1.537,4.2,0,5.739L42.539,83.81    c1.538,1.536,4.201,1.536,5.737,0l36.472-36.472c1.538-1.539,1.538-4.202,0-5.739L48.276,5.025    C47.559,4.307,46.535,3.897,45.408,3.897L45.408,3.897z"/>
	</defs>
	<clipPath id="SVGID_33_">
		<use xlink:href="#SVGID_9_" overflow="visible"/>
	</clipPath>
	
		<line clip-path="url(#SVGID_33_)" fill="none" stroke="#FFFFFF" stroke-width="0.605" x1="59.034" y1="52.972" x2="42.745" y2="89.341"/>
</g>
<g>
	<defs>
		<path id="SVGID_8_" d="M45.408,3.897c-1.024,0-2.049,0.41-2.766,1.229L6.067,41.599c-1.537,1.537-1.537,4.2,0,5.739L42.539,83.81    c1.538,1.536,4.201,1.536,5.737,0l36.472-36.472c1.538-1.539,1.538-4.202,0-5.739L48.276,5.025    C47.559,4.307,46.535,3.897,45.408,3.897L45.408,3.897z"/>
	</defs>
	<clipPath id="SVGID_34_">
		<use xlink:href="#SVGID_8_" overflow="visible"/>
	</clipPath>
	<path clip-path="url(#SVGID_34_)" fill="#F18500" d="M50.941,63.217"/>
</g>
<g>
	<defs>
		<path id="SVGID_7_" d="M45.408,3.897c-1.024,0-2.049,0.41-2.766,1.229L6.067,41.599c-1.537,1.537-1.537,4.2,0,5.739L42.539,83.81    c1.538,1.536,4.201,1.536,5.737,0l36.472-36.472c1.538-1.539,1.538-4.202,0-5.739L48.276,5.025    C47.559,4.307,46.535,3.897,45.408,3.897L45.408,3.897z"/>
	</defs>
	<clipPath id="SVGID_35_">
		<use xlink:href="#SVGID_7_" overflow="visible"/>
	</clipPath>
	<path clip-path="url(#SVGID_35_)" fill="none" stroke="#FFFFFF" stroke-width="0.605" d="M50.941,63.217"/>
</g>
<g>
	<defs>
		<path id="SVGID_6_" d="M45.408,3.897c-1.024,0-2.049,0.41-2.766,1.229L6.067,41.599c-1.537,1.537-1.537,4.2,0,5.739L42.539,83.81    c1.538,1.536,4.201,1.536,5.737,0l36.472-36.472c1.538-1.539,1.538-4.202,0-5.739L48.276,5.025    C47.559,4.307,46.535,3.897,45.408,3.897L45.408,3.897z"/>
	</defs>
	<clipPath id="SVGID_36_">
		<use xlink:href="#SVGID_6_" overflow="visible"/>
	</clipPath>
	
		<line clip-path="url(#SVGID_36_)" fill="none" stroke="#FFFFFF" stroke-width="0.605" x1="58.829" y1="53.177" x2="97.76" y2="48.977"/>
</g>
<g>
	<defs>
		<path id="SVGID_5_" d="M45.408,3.897c-1.024,0-2.049,0.41-2.766,1.229L6.067,41.599c-1.537,1.537-1.537,4.2,0,5.739L42.539,83.81    c1.538,1.536,4.201,1.536,5.737,0l36.472-36.472c1.538-1.539,1.538-4.202,0-5.739L48.276,5.025    C47.559,4.307,46.535,3.897,45.408,3.897L45.408,3.897z"/>
	</defs>
	<clipPath id="SVGID_37_">
		<use xlink:href="#SVGID_5_" overflow="visible"/>
	</clipPath>
	
		<line clip-path="url(#SVGID_37_)" fill="none" stroke="#FFFFFF" stroke-width="0.605" x1="61.083" y1="27.973" x2="85.056" y2="52.972"/>
</g>
<g>
	<defs>
		<path id="SVGID_4_" d="M45.408,3.897c-1.024,0-2.049,0.41-2.766,1.229L6.067,41.599c-1.537,1.537-1.537,4.2,0,5.739L42.539,83.81    c1.538,1.536,4.201,1.536,5.737,0l36.472-36.472c1.538-1.539,1.538-4.202,0-5.739L48.276,5.025    C47.559,4.307,46.535,3.897,45.408,3.897L45.408,3.897z"/>
	</defs>
	<clipPath id="SVGID_38_">
		<use xlink:href="#SVGID_4_" overflow="visible"/>
	</clipPath>
	
		<line clip-path="url(#SVGID_38_)" fill="none" stroke="#FFFFFF" stroke-width="0.605" x1="61.287" y1="28.178" x2="67.743" y2="21.417"/>
</g>
<g>
	<defs>
		<path id="SVGID_3_" d="M45.408,3.897c-1.024,0-2.049,0.41-2.766,1.229L6.067,41.599c-1.537,1.537-1.537,4.2,0,5.739L42.539,83.81    c1.538,1.536,4.201,1.536,5.737,0l36.472-36.472c1.538-1.539,1.538-4.202,0-5.739L48.276,5.025    C47.559,4.307,46.535,3.897,45.408,3.897L45.408,3.897z"/>
	</defs>
	<clipPath id="SVGID_39_">
		<use xlink:href="#SVGID_3_" overflow="visible"/>
	</clipPath>
	
		<line clip-path="url(#SVGID_39_)" fill="none" stroke="#FFFFFF" stroke-width="0.605" x1="60.878" y1="27.973" x2="15.083" y2="30.842"/>
</g>
<g>
	<defs>
		<path id="SVGID_2_" d="M45.408,3.897c-1.024,0-2.049,0.41-2.766,1.229L6.067,41.599c-1.537,1.537-1.537,4.2,0,5.739L42.539,83.81    c1.538,1.536,4.201,1.536,5.737,0l36.472-36.472c1.538-1.539,1.538-4.202,0-5.739L48.276,5.025    C47.559,4.307,46.535,3.897,45.408,3.897L45.408,3.897z"/>
	</defs>
	<clipPath id="SVGID_40_">
		<use xlink:href="#SVGID_2_" overflow="visible"/>
	</clipPath>
	
		<line clip-path="url(#SVGID_40_)" fill="none" stroke="#FFFFFF" stroke-width="0.605" x1="23.996" y1="44.981" x2="48.481" y2="0.21"/>
</g>
<g>
	<defs>
		<path id="SVGID_1_" d="M45.408,3.897c-1.024,0-2.049,0.41-2.766,1.229L6.067,41.599c-1.537,1.537-1.537,4.2,0,5.739L42.539,83.81    c1.538,1.536,4.201,1.536,5.737,0l36.472-36.472c1.538-1.539,1.538-4.202,0-5.739L48.276,5.025    C47.559,4.307,46.535,3.897,45.408,3.897L45.408,3.897z"/>
	</defs>
	<clipPath id="SVGID_41_">
		<use xlink:href="#SVGID_1_" overflow="visible"/>
	</clipPath>
	
		<line clip-path="url(#SVGID_41_)" fill="none" stroke="#FFFFFF" stroke-width="0.605" x1="58.829" y1="51.332" x2="39.363" y2="0.107"/>
</g>
</svg>